<svg width="69" height="69" viewBox="0 0 69 69" fill="none" xmlns="http://www.w3.org/2000/svg">
<path d="M34.5001 49.6512L49.3638 58.6212C50.4563 59.2824 51.8076 58.3049 51.5201 57.0687L47.5813 40.1637L60.6913 28.8074C61.6401 27.9737 61.1513 26.3924 59.8576 26.2774L42.5788 24.8112L35.8226 8.88369C35.7141 8.62224 35.5306 8.39879 35.2952 8.24159C35.0598 8.08439 34.7831 8.00049 34.5001 8.00049C34.217 8.00049 33.9403 8.08439 33.7049 8.24159C33.4695 8.39879 33.286 8.62224 33.1776 8.88369L26.4213 24.8112L9.14257 26.2774C8.85956 26.3018 8.5901 26.4094 8.3682 26.5867C8.14631 26.764 7.98192 27.0031 7.89579 27.2738C7.80967 27.5445 7.80567 27.8346 7.88429 28.1076C7.96292 28.3805 8.12065 28.6241 8.33757 28.8074L21.4476 40.1637L17.5088 57.0687C17.2213 58.3049 18.5726 59.2824 19.6651 58.6212L34.5001 49.6512Z" fill="#CA9928"/>
</svg>
